<svg xmlns="http://www.w3.org/2000/svg" xmlns:xlink="http://www.w3.org/1999/xlink" version="1.1" width="1000" height="1000" viewBox="0 0 1000 1000" xml:space="preserve">
<desc>Created with Fabric.js 3.5.0</desc>
<defs>
</defs>
<rect x="0" y="0" width="100%" height="100%" fill="rgba(255,255,255,0)"/>
<g transform="matrix(19.8752 0 0 19.8752 500.0003 500.0003)" id="684897">
<g style="" vector-effect="non-scaling-stroke">
		<g transform="matrix(1 0 0 1 -6.8864 0.0001)" id="Capa_1">
<path style="stroke: none; stroke-width: 1; stroke-dasharray: none; stroke-linecap: butt; stroke-dashoffset: 0; stroke-linejoin: miter; stroke-miterlimit: 4; is-custom-font: none; font-file-url: none; fill: rgb(255,255,255); fill-rule: nonzero; opacity: 1;" transform=" translate(-15.9835, -22.8701)" d="M 12.2 15.267 c 0 -3.322 0.896 -6.43 2.448 -9.113 c 0.376 -0.649 -0.191 -1.451 -0.918 -1.265 C 5.35 7.041 -0.711 14.961 0.067 24.179 c 0.736 8.701 7.768 15.803 16.463 16.617 c 6.033 0.565 11.517 -1.811 15.221 -5.848 c 0.5 -0.546 0.073 -1.432 -0.666 -1.401 c -0.196 0.009 -0.395 0.013 -0.594 0.013 C 20.389 33.56 12.2 25.371 12.2 15.267 z" stroke-linecap="round"/>
</g>
		<g transform="matrix(1 0 0 1 -0.0782 -13.2945)" id="Capa_1">
<path style="stroke: none; stroke-width: 1; stroke-dasharray: none; stroke-linecap: butt; stroke-dashoffset: 0; stroke-linejoin: miter; stroke-miterlimit: 4; is-custom-font: none; font-file-url: none; fill: rgb(255,255,255); fill-rule: nonzero; opacity: 1;" transform=" translate(-22.7918, -9.5756)" d="M 23.144 5.6 l 0.917 2.633 l 2.788 0.061 c 0.354 0.008 0.498 0.456 0.218 0.669 l -2.221 1.687 l 0.805 2.669 c 0.104 0.338 -0.279 0.614 -0.568 0.414 l -2.292 -1.59 l -2.29 1.59 c -0.29 0.201 -0.669 -0.076 -0.569 -0.414 l 0.805 -2.669 l -2.221 -1.687 c -0.28 -0.213 -0.134 -0.661 0.218 -0.669 l 2.788 -0.061 L 22.44 5.6 C 22.556 5.267 23.027 5.267 23.144 5.6 z" stroke-linecap="round"/>
</g>
		<g transform="matrix(1 0 0 1 17.0013 7.452)" id="Capa_1">
<path style="stroke: none; stroke-width: 1; stroke-dasharray: none; stroke-linecap: butt; stroke-dashoffset: 0; stroke-linejoin: miter; stroke-miterlimit: 4; is-custom-font: none; font-file-url: none; fill: rgb(255,255,255); fill-rule: nonzero; opacity: 1;" transform=" translate(-39.8712, -30.322)" d="M 40.26 26.44 l 0.881 2.53 l 2.679 0.057 c 0.389 0.009 0.549 0.502 0.24 0.737 l -2.134 1.621 l 0.772 2.564 c 0.111 0.371 -0.309 0.677 -0.627 0.454 l -2.201 -1.527 l -2.2 1.527 c -0.318 0.223 -0.739 -0.083 -0.626 -0.454 l 0.772 -2.564 l -2.133 -1.621 c -0.31 -0.234 -0.149 -0.729 0.238 -0.737 l 2.679 -0.057 l 0.884 -2.53 C 39.612 26.074 40.131 26.074 40.26 26.44 z" stroke-linecap="round"/>
</g>
		<g transform="matrix(1 0 0 1 16.6034 -9.1083)" id="Capa_1">
<path style="stroke: none; stroke-width: 1; stroke-dasharray: none; stroke-linecap: butt; stroke-dashoffset: 0; stroke-linejoin: miter; stroke-miterlimit: 4; is-custom-font: none; font-file-url: none; fill: rgb(255,255,255); fill-rule: nonzero; opacity: 1;" transform=" translate(-39.4734, -13.7617)" d="M 39.926 8.098 l 1.325 3.799 l 4.021 0.086 c 0.452 0.01 0.639 0.584 0.278 0.858 l -3.204 2.434 l 1.162 3.853 c 0.131 0.433 -0.356 0.788 -0.729 0.529 l -3.306 -2.294 l -3.305 2.294 c -0.372 0.259 -0.86 -0.097 -0.729 -0.529 l 1.161 -3.853 l -3.205 -2.434 c -0.358 -0.273 -0.172 -0.849 0.279 -0.858 l 4.022 -0.086 l 1.324 -3.799 C 39.173 7.672 39.776 7.672 39.926 8.098 z" stroke-linecap="round"/>
</g>
</g>
</g>
</svg>